<?xml version="1.0" encoding="UTF-8"?>
<svg width="234px" height="90px" viewBox="0 0 234 90" version="1.1" xmlns="http://www.w3.org/2000/svg" xmlns:xlink="http://www.w3.org/1999/xlink">
    <title>gcc-horiz-dark</title>
    <g id="gcc-horiz-dark" stroke="none" stroke-width="1" fill="none" fill-rule="evenodd">
        <g id="Group" fill="#FFFFFF" fill-rule="nonzero">
            <g transform="translate(130.500000, 18.500000)">
                <path d="M4.76409951,11 C6.10931415,11 7.1898566,10.6056695 8.00572685,9.8170086 C8.8215971,9.02834767 9.22953223,7.98610192 9.22953223,6.69027134 L9.22953223,6.69027134 L9.22953223,5.40900066 L4.96806707,5.40900066 L4.96806707,6.5592323 L7.92559674,6.5592323 L7.92559674,6.81403044 C7.92559674,7.70218398 7.6354286,8.42047209 7.05509232,8.96889477 C6.47475604,9.51731745 5.71351995,9.79152879 4.77138407,9.79152879 C3.71755166,9.79152879 2.88347001,9.40690492 2.26913914,8.63765718 C1.65480826,7.86840944 1.34764283,6.82131039 1.34764283,5.49636003 C1.34764283,4.19082285 1.65723645,3.14979043 2.2764237,2.37326274 C2.89561094,1.59673505 3.72483621,1.20847121 4.76409951,1.20847121 C5.5411188,1.20847121 6.18944427,1.39289654 6.70907592,1.76174719 C7.22870756,2.13059784 7.6026481,2.66931392 7.83089751,3.37789543 L7.83089751,3.37789543 L9.16397123,3.37789543 C8.97457278,2.33928965 8.48529344,1.51665564 7.69613323,0.909993382 C6.90697302,0.303331127 5.92962844,0 4.76409951,0 C3.32661383,0 2.17322582,0.501103022 1.30393549,1.50330907 C0.434645164,2.50551511 0,3.8365321 0,5.49636003 C0,7.17560115 0.431002886,8.51268476 1.29300866,9.50761085 C2.15501443,10.502537 3.31204472,11 4.76409951,11 Z M14.1004719,10.7524818 L14.1004719,6.59563203 L16.6864892,6.59563203 L18.937417,10.7524818 L20.4744582,10.7524818 L18.0414166,6.39179351 C18.701883,6.1831017 19.2190865,5.8118244 19.593027,5.27796161 C19.9669675,4.74409883 20.1539378,4.11074344 20.1539378,3.37789543 C20.1539378,2.43150232 19.8492005,1.6731745 19.239726,1.10291198 C18.6302515,0.53264946 17.8180235,0.2475182 16.8030421,0.2475182 L16.8030421,0.2475182 L12.7892518,0.2475182 L12.7892518,10.7524818 L14.1004719,10.7524818 Z M16.6864892,5.4308405 L14.1004719,5.4308405 L14.1004719,1.41230973 L16.6282128,1.41230973 C17.3081046,1.41230973 17.8398772,1.58945511 18.2235305,1.94374586 C18.6071838,2.29803662 18.7990104,2.79064637 18.7990104,3.42157512 C18.7990104,4.06706375 18.6156824,4.56331348 18.2490264,4.91032429 C17.8823705,5.2573351 17.3615247,5.4308405 16.6864892,5.4308405 L16.6864892,5.4308405 Z M24.3182755,10.7524818 L25.3745361,7.74586367 L29.5558712,7.74586367 L30.6121318,10.7524818 L31.9889128,10.7524818 L28.1135291,0.2475182 L26.8168782,0.2475182 L22.9414945,10.7524818 L24.3182755,10.7524818 Z M29.1697897,6.63203177 L25.7606176,6.63203177 L27.4069272,1.94374586 L27.5234801,1.94374586 L29.1697897,6.63203177 Z M38.7975443,11 C39.9145096,11 40.8578595,10.7124421 41.6275943,10.1373263 C42.397329,9.56221046 42.869611,8.79174939 43.0444404,7.82594308 L43.0444404,7.82594308 L41.7113667,7.82594308 C41.5462501,8.43260534 41.2026618,8.91186852 40.680602,9.26373263 C40.1585422,9.61559674 39.5308563,9.79152879 38.7975443,9.79152879 C37.7874193,9.79152879 36.9861181,9.40690492 36.3936409,8.63765718 C35.8011637,7.86840944 35.5049251,6.82373704 35.5049251,5.50363997 C35.5049251,4.18354291 35.7999496,3.13765718 36.3899986,2.36598279 C36.9800476,1.59430841 37.7801347,1.20847121 38.7902598,1.20847121 C39.513859,1.20847121 40.1379026,1.40624311 40.6623906,1.8017869 C41.1868786,2.19733069 41.5365373,2.73483344 41.7113667,3.41429517 L41.7113667,3.41429517 L43.0444404,3.41429517 C42.8890365,2.39995588 42.4179686,1.57732186 41.6312365,0.946393117 C40.8445045,0.315464372 39.8975123,0 38.7902598,0 C37.3624868,0 36.2333807,0.493823075 35.4029413,1.48146923 C34.5725019,2.46911538 34.1572823,3.80983896 34.1572823,5.50363997 C34.1572823,7.19744099 34.573716,8.53695125 35.4065836,9.52217075 C36.2394511,10.5073902 37.3697714,11 38.7975443,11 Z M53,10.7524818 L53,9.57313038 L47.7988271,9.57313038 L47.7988271,5.96227664 L52.7304714,5.96227664 L52.7304714,4.79748511 L47.7988271,4.79748511 L47.7988271,1.42686962 L53,1.42686962 L53,0.2475182 L46.4876071,0.2475182 L46.4876071,10.7524818 L53,10.7524818 Z" id="GRACE"></path>
                <path d="M4.67770147,32 C5.80367879,32 6.75464008,31.7124421 7.53058533,31.1373263 C8.30653057,30.5622105 8.78262316,29.7917494 8.95886309,28.8259431 L8.95886309,28.8259431 L7.61503363,28.8259431 C7.4485848,29.4326053 7.10222439,29.9118685 6.57595238,30.2637326 C6.04968036,30.6155967 5.41693006,30.7915288 4.67770147,30.7915288 C3.65942632,30.7915288 2.85165997,30.4069049 2.25440243,29.6376572 C1.65714489,28.8684094 1.35851612,27.823737 1.35851612,26.50364 C1.35851612,25.1835429 1.65592101,24.1376572 2.25073077,23.3659828 C2.84554053,22.5943084 3.65208299,22.2084712 4.67035814,22.2084712 C5.39979562,22.2084712 6.02887426,22.4062431 6.55759405,22.8017869 C7.08631384,23.1973307 7.4387937,23.7348334 7.61503363,24.4142952 L7.61503363,24.4142952 L8.95886309,24.4142952 C8.80220538,23.3999559 8.32733668,22.5773219 7.53425699,21.9463931 C6.74117731,21.3154644 5.78654436,21 4.67035814,21 C3.23106538,21 2.09284916,21.4938231 1.2557095,22.4814692 C0.418569833,23.4691154 0,24.809839 0,26.50364 C0,28.197441 0.419793721,29.5369512 1.25938116,30.5221707 C2.09896861,31.5073902 3.23840871,32 4.67770147,32 Z M16.8872121,32 C18.3901471,32 19.5736472,31.5049636 20.4377124,30.5148908 C21.3017776,29.524818 21.7338102,28.1853077 21.7338102,26.49636 C21.7338102,24.8074123 21.3017776,23.4691154 20.4377124,22.4814692 C19.5736472,21.4938231 18.3901471,21 16.8872121,21 C15.3891727,21 14.2032249,21.4938231 13.3293686,22.4814692 C12.4555123,23.4691154 12.0185841,24.8074123 12.0185841,26.49636 C12.0185841,28.1853077 12.4518406,29.524818 13.3183536,30.5148908 C14.1848666,31.5049636 15.3744861,32 16.8872121,32 Z M16.8872121,30.7915288 C15.7955037,30.7915288 14.9375579,30.4044783 14.3133748,29.6303772 C13.6891918,28.8562762 13.3771002,27.8116038 13.3771002,26.49636 C13.3771002,25.1811163 13.6928634,24.1376572 14.3243898,23.3659828 C14.9559163,22.5943084 15.8101904,22.2084712 16.8872121,22.2084712 C17.9691295,22.2084712 18.8209558,22.5930951 19.4426911,23.3623428 C20.0644264,24.1315906 20.3752941,25.176263 20.3752941,26.49636 C20.3752941,27.8067505 20.0644264,28.8502096 19.4426911,29.6267373 C18.8209558,30.4032649 17.9691295,30.7915288 16.8872121,30.7915288 Z M26.5118705,31.7524818 L26.5118705,23.7299801 L26.5999905,23.7299801 L29.9412058,31.6796823 L31.057392,31.6796823 L34.3986074,23.7299801 L34.4867273,23.7299801 L34.4867273,31.7524818 L35.7204069,31.7524818 L35.7204069,21.2475182 L34.1856508,21.2475182 L30.5580456,29.939775 L30.4405523,29.939775 L26.8129471,21.2475182 L25.278191,21.2475182 L25.278191,31.7524818 L26.5118705,31.7524818 Z M40.9096937,31.7524818 L40.9096937,23.7299801 L40.9978136,23.7299801 L44.339029,31.6796823 L45.4552152,31.6796823 L48.7964305,23.7299801 L48.8845505,23.7299801 L48.8845505,31.7524818 L50.11823,31.7524818 L50.11823,21.2475182 L48.5834739,21.2475182 L44.9558687,29.939775 L44.8383754,29.939775 L41.2107702,21.2475182 L39.6760142,21.2475182 L39.6760142,31.7524818 L40.9096937,31.7524818 Z M58.3182823,32 C59.6107084,32 60.635103,31.6420693 61.3914661,30.9262078 C62.1478291,30.2103463 62.5260106,29.2821531 62.5260106,28.1416281 L62.5260106,28.1416281 L62.5260106,21.2475182 L61.2042111,21.2475182 L61.2042111,28.0542687 C61.2042111,28.8647695 60.9484185,29.5236047 60.4368331,30.0307743 C59.9252477,30.537944 59.2190641,30.7915288 58.3182823,30.7915288 C57.4175004,30.7915288 56.7113168,30.537944 56.1997315,30.0307743 C55.6881461,29.5236047 55.4323534,28.8647695 55.4323534,28.0542687 L55.4323534,28.0542687 L55.4323534,21.2475182 L54.110554,21.2475182 L54.110554,28.1416281 C54.110554,29.2821531 54.4887355,30.2103463 55.2450985,30.9262078 C56.0014615,31.6420693 57.0258561,32 58.3182823,32 Z M67.8254474,31.7524818 L67.8254474,23.606221 L67.9429407,23.606221 L73.6927684,31.7524818 L74.9778512,31.7524818 L74.9778512,21.2475182 L73.6707384,21.2475182 L73.6707384,29.4228987 L73.5532451,29.4228987 L67.8034174,21.2475182 L66.5183346,21.2475182 L66.5183346,31.7524818 L67.8254474,31.7524818 Z M80.255258,31.7524818 L80.255258,21.2475182 L78.9334585,21.2475182 L78.9334585,31.7524818 L80.255258,31.7524818 Z M88.2864137,31.7524818 L88.2864137,22.4268696 L91.7010623,22.4268696 L91.7010623,21.2475182 L83.5499655,21.2475182 L83.5499655,22.4268696 L86.9646142,22.4268696 L86.9646142,31.7524818 L88.2864137,31.7524818 Z M99.2402148,31.7524818 L99.2402148,27.2316347 L103,21.2475182 L101.494617,21.2475182 L98.6380617,25.9139643 L98.5205685,25.9139643 L95.6640129,21.2475182 L94.1586302,21.2475182 L97.9184154,27.2316347 L97.9184154,31.7524818 L99.2402148,31.7524818 Z" id="COMMUNITY"></path>
                <path d="M4.70092632,53 C5.83249414,53 6.78817696,52.7124421 7.56797479,52.1373263 C8.34777261,51.5622105 8.826229,50.7917494 9.00334397,49.8259431 L9.00334397,49.8259431 L7.65284237,49.8259431 C7.48556713,50.4326053 7.13748703,50.9118685 6.60860207,51.2637326 C6.07971711,51.6155967 5.44382519,51.7915288 4.70092632,51.7915288 C3.67759542,51.7915288 2.8658185,51.4069049 2.26559557,50.6376572 C1.66537264,49.8684094 1.36526118,48.823737 1.36526118,47.50364 C1.36526118,46.1835429 1.66414268,45.1376572 2.26190568,44.3659828 C2.85966868,43.5943084 3.67021563,43.2084712 4.69354653,43.2084712 C5.42660568,43.2084712 6.0588077,43.4062431 6.59015259,43.8017869 C7.12149748,44.1973307 7.47572741,44.7348334 7.65284237,45.4142952 L7.65284237,45.4142952 L9.00334397,45.4142952 C8.84590844,44.3999559 8.36868202,43.5773219 7.57166468,42.9463931 C6.77464735,42.3154644 5.81527463,42 4.69354653,42 C3.24710766,42 2.10324019,42.4938231 1.26194411,43.4814692 C0.420648038,44.4691154 0,45.809839 0,47.50364 C0,49.197441 0.421878003,50.5369512 1.26563401,51.5221707 C2.10939001,52.5073902 3.25448745,53 4.70092632,53 Z M13.819887,52.7524818 L13.819887,47.9695566 L19.6646808,47.9695566 L19.6646808,52.7524818 L20.993043,52.7524818 L20.993043,42.2475182 L19.6646808,42.2475182 L19.6646808,46.7902052 L13.819887,46.7902052 L13.819887,42.2475182 L12.4915248,42.2475182 L12.4915248,52.7524818 L13.819887,52.7524818 Z M25.5143944,52.7524818 L26.584464,49.7458637 L30.8204635,49.7458637 L31.8905331,52.7524818 L33.2853134,52.7524818 L29.3592651,42.2475182 L28.0456625,42.2475182 L24.1196141,52.7524818 L25.5143944,52.7524818 Z M30.4293347,48.6320318 L26.9755929,48.6320318 L28.6434255,43.9437459 L28.7615021,43.9437459 L30.4293347,48.6320318 Z M37.7402468,52.7524818 L37.7402468,49.0033091 L40.4191106,49.0033091 C41.4178422,49.0033091 42.2382289,48.689058 42.8802706,48.0605559 C43.5223123,47.4320538 43.8433332,46.6276197 43.8433332,45.6472535 C43.8433332,44.6474741 43.5272322,43.8309067 42.8950302,43.1975513 C42.2628282,42.5641959 41.4424415,42.2475182 40.4338702,42.2475182 L40.4338702,42.2475182 L36.4118845,42.2475182 L36.4118845,52.7524818 L37.7402468,52.7524818 Z M40.08702,47.8385175 L37.7402468,47.8385175 L37.7402468,43.4123097 L40.08702,43.4123097 C40.8594381,43.4123097 41.4510512,43.604015 41.8618596,43.9874255 C42.2726679,44.3708361 42.478072,44.9241121 42.478072,45.6472535 C42.478072,46.3412751 42.268978,46.8799912 41.8507899,47.2634017 C41.4326018,47.6468123 40.8446785,47.8385175 40.08702,47.8385175 L40.08702,47.8385175 Z M53.8700081,52.7524818 L53.8700081,51.5731304 L48.6008379,51.5731304 L48.6008379,47.9622766 L53.5969558,47.9622766 L53.5969558,46.7974851 L48.6008379,46.7974851 L48.6008379,43.4268696 L53.8700081,43.4268696 L53.8700081,42.2475182 L47.2724757,42.2475182 L47.2724757,52.7524818 L53.8700081,52.7524818 Z M64,52.7524818 L64,51.5731304 L58.8636661,51.5731304 L58.8636661,42.2475182 L57.5353038,42.2475182 L57.5353038,52.7524818 L64,52.7524818 Z" id="CHAPEL"></path>
            </g>
            <rect id="Rectangle" x="110" y="0" width="1" height="90"></rect>
            <g>
                <path d="M45,0 C69.8528137,0 90,20.1471863 90,45 C90,69.8528137 69.8528137,90 45,90 C20.1471863,90 0,69.8528137 0,45 C0,20.1471863 20.1471863,0 45,0 Z M45,3 C21.8040405,3 3,21.8040405 3,45 C3,68.1959595 21.8040405,87 45,87 C68.1959595,87 87,68.1959595 87,45 C87,21.8040405 68.1959595,3 45,3 Z" id="Oval"></path>
                <path d="M45.0042635,55 C45.0042635,47 43,45 35,45 C43,45 45.0042635,43 44.9957365,35 C45.0005177,39.481276 45.6312737,42.0811292 47.5941662,43.5005237 L74.9641652,43.5005412 C74.9886166,43.99728 75.0009861,44.4971955 75.0009861,45 C75.0009861,45.5031427 74.9885999,46.0033924 74.9641159,46.5004609 C74.1813516,62.3719118 61.0653998,75 45,75 C28.4314575,75 15,61.5685425 15,45 C15,28.4314575 28.4314575,15 45,15 C53.2847749,15 60.7851831,18.3582726 66.2141935,23.7877867 L64.0928768,25.9091107 C59.2067594,21.0224877 52.4563496,18 45,18 C30.0883118,18 18,30.0883118 18,45 C18,59.9116882 30.0883118,72 45,72 C59.4082074,72 71.1804776,60.714211 71.9590139,46.5004297 L47.5855556,46.5001147 C45.626461,47.9187707 44.9994863,50.5173946 45.0042635,55 Z" id="Combined-Shape"></path>
            </g>
        </g>
    </g>
</svg>